<svg width="21" height="16" viewBox="0 0 21 16" fill="none" xmlns="http://www.w3.org/2000/svg">
<g opacity="0.4">
<path d="M10.496 0.71878C5.95373 0.729441 1.78818 3.52262 0.109037 7.70172C-0.00936317 8.00023 -0.0201263 8.41601 0.0982742 8.71452C1.76665 12.9256 5.97526 15.7401 10.5283 15.7188C15.0814 15.6975 19.2254 12.9363 20.9045 8.7465C21.0229 8.44799 21.0337 8.03221 20.9261 7.73371C19.2469 3.53328 15.0275 0.708119 10.496 0.71878ZM10.496 2.21132C14.4355 2.42454 17.4063 4.16228 19.2577 7.69106C19.4514 8.0642 19.4514 8.37336 19.2577 8.7465C17.3956 12.2433 14.4571 14.1729 10.4853 14.1623C6.51345 14.1516 3.58572 12.222 1.73436 8.71452C1.55137 8.3627 1.56214 8.0642 1.74512 7.71238C3.57495 4.1836 6.53497 2.4352 10.496 2.21132Z" fill="white"/>
<path d="M15.0493 8.13893C14.9739 5.6336 12.8427 3.60802 10.3886 3.71463C7.88065 3.82124 5.86784 5.88947 5.94319 8.30951C6.01853 10.7829 8.10669 12.7871 10.5501 12.7338C13.0688 12.6805 15.1354 10.5696 15.0493 8.13893ZM7.4824 8.2562C7.46087 6.65706 8.80633 5.27113 10.4317 5.22849C12.0785 5.18584 13.4993 6.55045 13.5208 8.18158C13.5424 9.78073 12.1969 11.1667 10.5716 11.2093C8.9355 11.2519 7.50392 9.88734 7.4824 8.2562Z" fill="white"/>
</g>
</svg>
